<?xml version="1.0" encoding="iso-8859-1"?>
<!-- Generator: Adobe Illustrator 18.0.0, SVG Export Plug-In . SVG Version: 6.00 Build 0)  -->
<!DOCTYPE svg PUBLIC "-//W3C//DTD SVG 1.1//EN" "http://www.w3.org/Graphics/SVG/1.1/DTD/svg11.dtd">
<svg version="1.1" id="Capa_1" xmlns="http://www.w3.org/2000/svg" xmlns:xlink="http://www.w3.org/1999/xlink" x="0px" y="0px"
	 viewBox="0 0 294.048 294.048" style="enable-background:new 0 0 294.048 294.048;" xml:space="preserve">
<g>
	<path d="M279.048,29.19H15c-8.284,0-15,6.716-15,15v205.667c0,8.284,6.716,15,15,15h264.048c8.284,0,15-6.716,15-15V44.19
		C294.048,35.906,287.332,29.19,279.048,29.19z M264.048,234.857H30V59.19h234.048V234.857z"/>
	<path d="M64.153,115.853l37.716,32.114l-35.894,30.561c-6.308,5.37-7.067,14.838-1.696,21.146
		c5.371,6.308,14.838,7.066,21.146,1.696l39.583-33.702l12.292,10.467c2.803,2.386,6.264,3.579,9.725,3.579s6.922-1.193,9.725-3.579
		l12.292-10.467l39.583,33.702c6.302,5.367,15.772,4.615,21.146-1.696c5.371-6.308,4.611-15.775-1.696-21.146l-35.894-30.561
		l37.715-32.114c6.308-5.371,7.066-14.838,1.696-21.146c-5.372-6.308-14.838-7.066-21.146-1.696l-63.421,54.001L83.603,93.011
		c-6.308-5.369-15.774-4.611-21.146,1.696C57.087,101.015,57.846,110.481,64.153,115.853z"/>
</g>
<g>
</g>
<g>
</g>
<g>
</g>
<g>
</g>
<g>
</g>
<g>
</g>
<g>
</g>
<g>
</g>
<g>
</g>
<g>
</g>
<g>
</g>
<g>
</g>
<g>
</g>
<g>
</g>
<g>
</g>
</svg>
