<?xml version="1.0" encoding="UTF-8"?>
<svg xmlns="http://www.w3.org/2000/svg" xmlns:xlink="http://www.w3.org/1999/xlink" width="27px" height="27px" viewBox="0 0 27 27" version="1.1">
<g id="surface1">
<path style=" stroke:none;fill-rule:nonzero;fill:rgb(0%,0%,0%);fill-opacity:1;" d="M 13.5 0 C 7.878906 0 3.308594 4.570312 3.308594 10.191406 C 3.308594 12.515625 4.941406 15.957031 8.164062 20.421875 C 10.515625 23.679688 12.902344 26.335938 12.925781 26.363281 L 13.5 27 L 14.074219 26.363281 C 14.097656 26.335938 16.484375 23.679688 18.835938 20.421875 C 22.058594 15.957031 23.691406 12.515625 23.691406 10.191406 C 23.691406 4.570312 19.121094 0 13.5 0 Z M 13.5 24.679688 C 10.636719 21.382812 4.851562 13.941406 4.851562 10.191406 C 4.851562 5.421875 8.730469 1.542969 13.5 1.542969 C 18.269531 1.542969 22.148438 5.421875 22.148438 10.191406 C 22.148438 13.941406 16.363281 21.382812 13.5 24.679688 Z M 13.5 24.679688 "/>
<path style=" stroke:none;fill-rule:nonzero;fill:rgb(0%,0%,0%);fill-opacity:1;" d="M 17.335938 10.191406 C 17.335938 12.3125 15.621094 14.027344 13.5 14.027344 C 11.378906 14.027344 9.664062 12.3125 9.664062 10.191406 C 9.664062 8.070312 11.378906 6.355469 13.5 6.355469 C 15.621094 6.355469 17.335938 8.070312 17.335938 10.191406 Z M 17.335938 10.191406 "/>
</g>
</svg>
